# Blender v2.74 (sub 0) OBJ File: 'Hearthstone.blend'
# www.blender.org
mtllib Hearthstone.mtl
o Cube
v -0.455260 0.097729 0.000000
v -0.589235 -0.000000 0.000000
v -0.455260 -0.100468 0.000000
v -0.187816 -0.167925 0.000000
v -0.256463 0.166592 -0.319785
v -0.388446 0.097729 -0.320152
v -0.496833 -0.000000 -0.398900
v -0.388445 -0.100468 -0.320152
v -0.129777 -0.166296 -0.105008
v -0.000000 -0.186142 0.000000
v 0.000948 0.167451 -0.445015
v -0.158077 0.097729 -0.634754
v -0.199477 -0.000000 -0.762172
v -0.158077 -0.100468 -0.634754
v 0.001368 -0.167925 -0.286643
v 0.160813 0.097729 -0.634754
v 0.202213 -0.000000 -0.762172
v 0.160813 -0.100468 -0.634754
v 0.262609 0.166592 -0.319785
v 0.393920 0.097729 -0.320152
v 0.502308 -0.000000 -0.398900
v 0.393920 -0.100468 -0.320152
v 0.135251 -0.166296 -0.105008
v 0.366271 0.167451 0.000083
v 0.452848 0.097729 -0.000000
v 0.586823 -0.000000 0.000000
v 0.452848 -0.100468 0.000000
v 0.193290 -0.167925 -0.000000
v 0.258297 0.167228 0.320093
v 0.393920 0.097729 0.319700
v 0.502308 -0.000000 0.398448
v 0.393920 -0.100468 0.319700
v 0.135446 -0.166706 0.104555
v 0.000948 0.167451 0.444479
v 0.160813 0.097729 0.634302
v 0.202213 -0.000000 0.761719
v 0.160813 -0.100468 0.634302
v 0.001368 -0.167925 0.286191
v -0.158077 0.097729 0.634302
v -0.199477 -0.000000 0.761719
v -0.158077 -0.100468 0.634302
v -0.252150 0.167228 0.320093
v -0.388445 0.097729 0.319700
v -0.496833 -0.000000 0.398448
v -0.388446 -0.100468 0.319700
v -0.129972 -0.166706 0.104555
v -0.360124 0.167451 0.000084
v -0.004065 0.171863 0.300394
v 0.000164 0.171524 -0.077826
v 0.129082 0.172169 0.125927
v 0.188232 0.172413 0.163781
v 0.129424 0.172008 -0.047685
v 0.223014 0.172292 -0.095750
v 0.000486 0.171441 -0.167352
v 0.010982 0.171377 -0.275305
v -0.123521 0.171038 -0.131773
v -0.207656 0.170670 -0.207948
v -0.132544 0.171118 -0.011401
v -0.235669 0.170779 0.013711
v -0.061899 0.171426 0.051501
v -0.064073 0.171506 0.144373
v -0.014008 0.171553 0.006552
v 0.049084 0.171801 0.033662
v 0.129082 0.157600 0.125927
v -0.004065 0.157295 0.300394
v 0.000164 0.156956 -0.077826
v -0.014008 0.156985 0.006552
v 0.188232 0.157844 0.163781
v 0.223014 0.157724 -0.095750
v 0.129424 0.157439 -0.047685
v 0.010982 0.156809 -0.275305
v 0.000486 0.156873 -0.167352
v -0.207656 0.156101 -0.207948
v -0.123521 0.156469 -0.131773
v -0.235669 0.156210 0.013711
v -0.132544 0.156550 -0.011401
v -0.064073 0.156937 0.144373
v -0.061899 0.156858 0.051501
v 0.049084 0.157232 0.033662
vt 0.679150 0.318871
vt 0.570163 0.318871
vt 0.597391 0.188405
vt 0.702802 0.276079
vt 0.515567 0.318871
vt 0.553222 0.156314
vt 0.001251 0.683082
vt 0.056439 0.683082
vt 0.083962 0.814961
vt 0.039314 0.847400
vt 0.691269 0.060200
vt 0.756245 0.202060
vt 0.674398 0.008276
vt 0.178858 0.944555
vt 0.161804 0.997042
vt 0.138330 0.814810
vt 0.244364 0.866396
vt 0.838092 0.008276
vt 0.821221 0.060200
vt 0.310217 0.944555
vt 0.327271 0.997042
vt 0.960384 0.156314
vt 0.916215 0.188405
vt 0.406241 0.814961
vt 0.450889 0.847400
vt 0.810804 0.276079
vt 0.940229 0.318871
vt 0.834456 0.318871
vt 0.994825 0.318871
vt 0.430515 0.683082
vt 0.485703 0.683082
vt 0.352150 0.814810
vt 0.394852 0.683047
vt 0.916215 0.449152
vt 0.810883 0.361478
vt 0.960384 0.481243
vt 0.406241 0.551388
vt 0.450889 0.518950
vt 0.350374 0.551226
vt 0.821221 0.577357
vt 0.756245 0.435497
vt 0.838092 0.629281
vt 0.310217 0.421795
vt 0.327272 0.369308
vt 0.244364 0.499988
vt 0.674398 0.629281
vt 0.691269 0.577356
vt 0.178858 0.421795
vt 0.161804 0.369308
vt 0.755687 0.318871
vt 0.553222 0.481243
vt 0.597391 0.449152
vt 0.083962 0.551388
vt 0.039314 0.518950
vt 0.702722 0.361478
vt 0.095629 0.683047
vt 0.140106 0.551226
vt 0.248498 0.796488
vt 0.335840 0.722524
vt 0.146895 0.677434
vt 0.217581 0.623610
vt 0.238204 0.680383
vt 0.218476 0.661867
vt 0.242299 0.559341
vt 0.321512 0.615615
vt 0.193092 0.737363
vt 0.244174 0.752019
vt 0.297147 0.631208
vt 0.264193 0.669215
vt 0.244042 0.715140
vt 0.158435 0.768741
vt 0.297288 0.702724
vt 0.189375 0.687778
vt 0.819538 0.770732
vt 0.850332 0.751026
vt 0.868440 0.886138
vt 0.819716 0.861116
vt 0.758055 0.979616
vt 0.752591 0.923415
vt 0.644231 0.944549
vt 0.688032 0.904892
vt 0.629647 0.829153
vt 0.683334 0.842226
vt 0.718981 0.761129
vt 0.720112 0.809479
vt 0.777891 0.818766
vt 0.745045 0.832880
vt 0.750221 0.679904
vt 0.752423 0.876807
vt 0.000000 0.000000
vn -0.218800 -0.973400 -0.068000
vn -0.606300 -0.783900 -0.134200
vn -0.595900 0.792100 -0.132000
vn -0.160000 -0.980600 -0.113300
vn -0.500600 -0.773000 -0.389700
vn -0.492300 0.781500 -0.383300
vn -0.256000 0.924600 -0.282100
vn 0.000000 -0.785300 -0.619200
vn 0.000000 0.793500 -0.608600
vn 0.498200 -0.773500 -0.391900
vn 0.489900 0.781900 -0.385400
vn 0.223100 -0.972600 -0.065100
vn 0.609800 -0.783200 -0.121600
vn 0.599400 0.791400 -0.119600
vn 0.531500 0.836100 -0.136100
vn 0.224200 -0.972400 0.064500
vn 0.609700 -0.783200 0.121800
vn 0.599400 0.791500 0.119700
vn 0.526100 0.839200 0.137600
vn 0.158700 -0.980600 0.115000
vn 0.498200 -0.773500 0.391900
vn 0.489900 0.781900 0.385400
vn 0.254000 0.924800 0.283400
vn -0.000000 -0.785300 0.619200
vn 0.000000 0.793500 0.608600
vn 0.097100 -0.993300 -0.062700
vn -0.500600 -0.773000 0.389700
vn -0.492300 0.781500 0.383300
vn -0.097300 -0.993200 0.063700
vn -0.096300 -0.993000 -0.068600
vn -0.515700 0.845500 -0.138500
vn -0.100400 -0.992900 -0.063600
vn -0.255700 0.925000 0.281200
vn 0.000000 0.938700 0.344800
vn 0.093600 -0.993300 -0.067200
vn 0.093600 -0.993600 0.063400
vn 0.094100 -0.993600 0.062800
vn 0.158800 -0.980700 -0.114200
vn -0.159900 -0.980500 0.114100
vn 0.000000 -0.981700 -0.190200
vn -0.000000 -0.981700 0.190200
vn -0.096300 -0.993200 0.064900
vn -0.219800 -0.973200 0.067400
vn -0.606200 -0.783900 0.134400
vn -0.595900 0.792100 0.132100
vn -0.510600 0.848400 0.139800
vn 0.000000 0.938600 -0.344900
vn 0.254300 0.924400 -0.284300
vn 0.014900 0.999600 -0.023300
vn 0.605800 0.000000 -0.795600
vn 0.684400 0.000000 0.729100
vn -0.646200 0.000000 0.763100
vn -0.579200 0.000000 -0.815200
vn -0.275800 0.000000 -0.961200
vn 0.794900 0.000000 0.606700
vn -0.915700 0.000000 0.401800
vn 0.992100 0.000000 0.125400
vn -0.013600 0.999600 -0.025600
vn -0.035200 0.999300 -0.010400
vn 0.045400 0.998800 -0.017400
vn 0.036200 0.999300 0.009100
vn -0.003500 1.000000 -0.000900
vn 0.015600 0.999500 0.028000
vn -0.017300 0.999700 0.017300
vn -0.018800 0.999800 0.010600
vn 1.000000 0.000000 0.002000
vn -0.997200 0.000000 -0.074800
vn 0.986200 0.000000 0.165600
vn 0.294400 0.000000 0.955700
vn -0.699300 0.000000 -0.714800
vn 0.680300 0.000000 -0.733000
vn -0.991100 0.000000 -0.132800
vn -0.665000 0.000000 0.746800
usemtl Material
s off
f 4/1/1 3/2/1 8/3/1 9/4/1
f 3/2/2 2/5/2 7/6/2 8/3/2
f 2/7/3 1/8/3 6/9/3 7/10/3
f 9/4/4 8/3/4 14/11/4 15/12/4
f 8/3/5 7/6/5 13/13/5 14/11/5
f 7/10/6 6/9/6 12/14/6 13/15/6
f 6/9/7 5/16/7 11/17/7 12/14/7
f 14/11/8 13/13/8 17/18/8 18/19/8
f 13/15/9 12/14/9 16/20/9 17/21/9
f 18/19/10 17/18/10 21/22/10 22/23/10
f 17/21/11 16/20/11 20/24/11 21/25/11
f 23/26/12 22/23/12 27/27/12 28/28/12
f 22/23/13 21/22/13 26/29/13 27/27/13
f 21/25/14 20/24/14 25/30/14 26/31/14
f 20/24/15 19/32/15 24/33/15 25/30/15
f 28/28/16 27/27/16 32/34/16 33/35/16
f 27/27/17 26/29/17 31/36/17 32/34/17
f 26/31/18 25/30/18 30/37/18 31/38/18
f 25/30/19 24/33/19 29/39/19 30/37/19
f 33/35/20 32/34/20 37/40/20 38/41/20
f 32/34/21 31/36/21 36/42/21 37/40/21
f 31/38/22 30/37/22 35/43/22 36/44/22
f 30/37/23 29/39/23 34/45/23 35/43/23
f 37/40/24 36/42/24 40/46/24 41/47/24
f 36/44/25 35/43/25 39/48/25 40/49/25
f 10/50/26 15/12/26 23/26/26
f 41/47/27 40/46/27 44/51/27 45/52/27
f 40/49/28 39/48/28 43/53/28 44/54/28
f 10/50/29 38/41/29 46/55/29
f 10/50/30 4/1/30 9/4/30
f 1/8/31 47/56/31 5/16/31 6/9/31
f 10/50/32 9/4/32 15/12/32
f 39/48/33 34/45/33 42/57/33 43/53/33
f 35/43/34 34/45/34 39/48/34
f 10/50/35 23/26/35 28/28/35
f 10/50/36 28/28/36 33/35/36
f 10/50/37 33/35/37 38/41/37
f 15/12/38 18/19/38 22/23/38 23/26/38
f 38/41/39 41/47/39 45/52/39 46/55/39
f 15/12/40 14/11/40 18/19/40
f 38/41/41 37/40/41 41/47/41
f 10/50/42 46/55/42 4/1/42
f 46/55/43 45/52/43 3/2/43 4/1/43
f 45/52/44 44/51/44 2/5/44 3/2/44
f 44/54/45 43/53/45 1/8/45 2/7/45
f 43/53/46 42/57/46 47/56/46 1/8/46
f 12/14/47 11/17/47 16/20/47
f 16/20/48 11/17/48 19/32/48 20/24/48
f 11/17/49 55/58/49 53/59/49 19/32/49
f 59/60/50 61/61/50 77/61/50 75/60/50
f 62/62/51 60/63/51 78/63/51 67/62/51
f 53/59/52 55/58/52 71/58/52 69/59/52
f 48/64/53 51/65/53 68/65/53 65/64/53
f 56/66/54 54/67/54 72/67/54 74/66/54
f 50/68/55 48/64/55 65/64/55 64/68/55
f 63/69/56 49/70/56 66/70/56 79/69/56
f 57/71/57 59/60/57 75/60/57 73/71/57
f 5/16/58 57/71/58 55/58/58 11/17/58
f 47/56/59 59/60/59 57/71/59 5/16/59
f 24/33/60 19/32/60 53/59/60
f 24/33/61 53/59/61 51/65/61 29/39/61
f 50/68/62 63/69/62 61/61/62 48/64/62
f 52/72/62 49/70/62 63/69/62 50/68/62
f 52/72/62 54/67/62 49/70/62
f 49/70/62 54/67/62 56/66/62 58/73/62 60/63/62 62/62/62
f 29/39/63 51/65/63 48/64/63 34/45/63
f 42/57/64 34/45/64 48/64/64 61/61/64
f 42/57/65 61/61/65 59/60/65 47/56/65
f 64/74/62 68/75/62 69/76/62 70/77/62
f 70/77/62 69/76/62 71/78/62 72/79/62
f 72/79/62 71/78/62 73/80/62 74/81/62
f 74/81/62 73/80/62 75/82/62 76/83/62
f 76/83/62 75/82/62 77/84/62 78/85/62
f 78/85/62 77/84/62 79/86/62 67/87/62
f 65/88/62 68/75/62 64/74/62
f 67/87/62 79/86/62 66/89/62
f 52/72/66 50/68/66 64/68/66 70/72/66
f 58/90/67 56/90/67 74/90/67 76/90/67
f 49/90/68 62/90/68 67/90/68 66/90/68
f 55/58/69 57/71/69 73/71/69 71/58/69
f 61/61/70 63/69/70 79/69/70 77/61/70
f 54/67/71 52/72/71 70/72/71 72/67/71
f 51/65/72 53/59/72 69/59/72 68/65/72
f 60/63/73 58/73/73 76/73/73 78/63/73
